<svg width="512" height="512" viewBox="0 0 512 512" fill="none" xmlns="http://www.w3.org/2000/svg">
  <g clip-path="url(#clip0_202_3)">
    <path
      d="M104.955 218.028C111.926 214.838 121.221 211.359 132.84 207.879C166.243 198.31 209.522 193.09 254.253 193.09C298.984 193.09 342.263 198.31 375.666 207.879C387.285 211.359 396.579 214.838 403.551 218.028C407.327 219.768 411.393 220.638 415.46 220.638C446.539 220.638 455.834 178.592 427.659 165.543C420.688 162.353 412.555 159.163 403.551 155.973C370.147 144.954 328.321 137.995 283.009 135.965V108.998C283.009 93.0489 269.938 80 253.962 80C237.987 80 224.916 93.0489 224.916 108.998V136.255C179.894 138.285 137.777 145.244 104.374 156.263C95.3699 159.163 87.5274 162.353 80.2659 165.833C52.091 178.882 61.3858 220.928 92.4653 220.928C97.1127 220.638 101.179 219.768 104.955 218.028Z"
      fill="#A0E8FF" />
    <path
      d="M434.049 307.341C428.24 292.262 414.588 280.953 398.032 278.923V227.597C393.675 225.858 389.027 224.118 383.509 222.088V278.923C368.114 281.823 355.334 292.552 349.815 307.051C333.259 309.66 317.864 314.3 317.864 322.999C317.864 331.699 332.968 336.338 349.815 338.948C356.205 355.766 372.762 367.945 391.932 367.945C411.103 367.945 427.368 355.766 434.049 338.948C450.605 336.338 466 331.699 466 322.999C466 314.3 450.605 309.66 434.049 307.341ZM347.491 329.669C336.163 327.639 329.192 325.029 327.159 322.999C329.192 320.969 336.163 318.36 347.491 316.33C347.201 318.36 346.91 320.679 346.91 322.999C346.91 325.609 347.201 327.639 347.491 329.669ZM436.373 329.669C436.663 327.639 436.954 325.319 436.954 322.999C436.954 320.679 436.663 318.65 436.373 316.33C447.701 318.36 454.672 320.969 456.705 322.999C454.962 325.319 447.701 327.639 436.373 329.669Z"
      fill="#A0E8FF" />
    <path
      d="M124.997 278.923V222.378C119.478 224.118 114.831 226.147 110.474 227.887V279.213C88.9798 282.403 72.7139 300.961 72.7139 323.289C72.7139 348.227 92.7558 368.235 117.736 368.235C142.715 368.235 162.757 347.937 162.757 323.289C162.757 300.961 146.491 282.403 124.997 278.923ZM107.279 354.026C103.212 354.026 100.017 350.837 100.017 346.777C100.017 342.717 103.212 339.528 107.279 339.528C111.345 339.528 114.54 342.717 114.54 346.777C114.54 350.837 111.345 354.026 107.279 354.026ZM124.997 318.069C117.155 318.069 110.474 311.69 110.474 303.571C110.474 295.741 116.864 289.072 124.997 289.072C132.84 289.072 139.52 295.451 139.52 303.571C139.52 311.69 132.84 318.069 124.997 318.069ZM143.587 330.248C140.392 330.248 137.487 327.639 137.487 324.159C137.487 320.969 140.101 318.069 143.587 318.069C146.782 318.069 149.686 320.679 149.686 324.159C149.686 327.639 147.072 330.248 143.587 330.248Z"
      fill="#A0E8FF" />
    <path
      d="M287.947 355.186C280.104 353.157 271.1 352.867 261.514 353.157V204.689C259.191 204.689 256.577 204.689 254.253 204.689C251.929 204.689 249.315 204.689 246.991 204.689V354.317C244.087 354.606 241.182 354.896 238.568 355.476L222.593 343.297C219.397 340.978 215.331 340.398 211.845 341.848L201.098 346.197C200.227 346.487 199.646 347.357 199.356 348.227C199.065 349.097 199.356 349.967 199.646 350.837L207.488 362.146C205.455 362.726 204.003 363.016 202.551 363.306C199.065 364.176 196.451 367.365 196.451 371.135V373.165L185.123 369.685C181.928 368.815 178.733 371.135 178.733 374.615V396.653C178.733 400.133 181.928 402.452 185.123 401.582L196.451 398.103V400.133C196.451 402.452 197.322 404.482 198.775 405.932C199.646 406.802 201.098 407.672 202.26 407.962C203.712 408.252 205.165 408.832 207.198 409.122L199.356 420.431C198.775 421.301 198.775 422.171 199.065 423.041C199.356 423.621 199.356 423.911 199.936 424.201C200.227 424.49 200.517 424.78 201.098 424.78L211.845 429.13C215.331 430.58 219.688 430 222.593 427.68L238.568 415.501C255.124 418.111 273.714 419.271 287.947 415.791C298.984 413.181 315.541 399.553 324.254 391.723C325.997 390.273 326.869 388.244 326.869 385.924C326.869 383.604 325.997 381.284 324.254 379.544C315.25 371.425 298.984 357.796 287.947 355.186ZM275.457 401.002C271.39 401.002 267.324 399.263 264.419 396.363C261.514 393.463 259.772 389.404 259.772 385.344C259.772 376.645 266.743 369.685 275.457 369.685C279.523 369.685 283.59 371.425 286.494 374.325C289.399 377.225 291.142 381.284 291.142 385.344C291.142 394.043 284.171 401.002 275.457 401.002Z"
      fill="#A0E8FF" />
  </g>
  <defs>
    <clipPath id="clip0_202_3">
      <rect width="402" height="350" fill="white" transform="translate(64 80)" />
    </clipPath>
  </defs>
</svg>